<?xml version="1.0" encoding="UTF-8" standalone="no"?>
<svg
   xmlns:dc="http://purl.org/dc/elements/1.1/"
   xmlns:cc="http://creativecommons.org/ns#"
   xmlns:rdf="http://www.w3.org/1999/02/22-rdf-syntax-ns#"
   xmlns:svg="http://www.w3.org/2000/svg"
   xmlns="http://www.w3.org/2000/svg"
   id="svg889"
   version="1.1"
   height="374"
   width="432"
   style="fill-opacity:1; color-rendering:auto; color-interpolation:auto; text-rendering:auto; stroke:black; stroke-linecap:square; stroke-miterlimit:10; shape-rendering:auto; stroke-opacity:1; fill:black; stroke-dasharray:none; font-weight:normal; stroke-width:1; font-family:'Dialog'; font-style:normal; stroke-linejoin:miter; font-size:12px; stroke-dashoffset:0; image-rendering:auto;">
  <metadata
     id="metadata893">
    <rdf:RDF>
      <cc:Work
         rdf:about="">
        <dc:format>image/svg+xml</dc:format>
        <dc:type
           rdf:resource="http://purl.org/dc/dcmitype/StillImage" />
        <dc:title></dc:title>
      </cc:Work>
    </rdf:RDF>
  </metadata>
  <!--Generated by the Batik Graphics2D SVG Generator-->
  <defs
     id="genericDefs">
    <marker
       style="overflow:visible;"
       id="marker1268"
       refX="0.0"
       refY="0.0"
       orient="auto">
      <path
         transform="scale(0.6) rotate(180) translate(0,0)"
         d="M 8.7185878,4.0337352 L -2.2072895,0.016013256 L 8.7185884,-4.0017078 C 6.9730900,-1.6296469 6.9831476,1.6157441 8.7185878,4.0337352 z "
         style="fill-rule:evenodd;stroke-width:0.625;stroke-linejoin:round;stroke:#000000;stroke-opacity:1;fill:#000000;fill-opacity:1"
         id="path1266" />
    </marker>
    <marker
       style="overflow:visible;"
       id="Arrow2Lend"
       refX="0.0"
       refY="0.0"
       orient="auto">
      <path
         transform="scale(1.1) rotate(180) translate(1,0)"
         d="M 8.7185878,4.0337352 L -2.2072895,0.016013256 L 8.7185884,-4.0017078 C 6.9730900,-1.6296469 6.9831476,1.6157441 8.7185878,4.0337352 z "
         style="fill-rule:evenodd;stroke-width:0.625;stroke-linejoin:round;stroke:#000000;stroke-opacity:1;fill:#000000;fill-opacity:1"
         id="path991" />
    </marker>
    <marker
       style="overflow:visible;"
       id="marker1262"
       refX="0.0"
       refY="0.0"
       orient="auto">
      <path
         transform="scale(0.8) rotate(180) translate(12.5,0)"
         style="fill-rule:evenodd;stroke:#000000;stroke-width:1pt;stroke-opacity:1;fill:#000000;fill-opacity:1"
         d="M 0.0,0.0 L 5.0,-5.0 L -12.5,0.0 L 5.0,5.0 L 0.0,0.0 z "
         id="path1260" />
    </marker>
    <marker
       style="overflow:visible;"
       id="marker1258"
       refX="0.0"
       refY="0.0"
       orient="auto">
      <path
         transform="scale(0.6) rotate(180) translate(0,0)"
         d="M 8.7185878,4.0337352 L -2.2072895,0.016013256 L 8.7185884,-4.0017078 C 6.9730900,-1.6296469 6.9831476,1.6157441 8.7185878,4.0337352 z "
         style="fill-rule:evenodd;stroke-width:0.625;stroke-linejoin:round;stroke:#000000;stroke-opacity:1;fill:#000000;fill-opacity:1"
         id="path1256" />
    </marker>
    <marker
       style="overflow:visible;"
       id="marker1254"
       refX="0.0"
       refY="0.0"
       orient="auto">
      <path
         transform="scale(0.2) rotate(180) translate(6,0)"
         style="fill-rule:evenodd;stroke:#000000;stroke-width:1pt;stroke-opacity:1;fill:#000000;fill-opacity:1"
         d="M 0.0,0.0 L 5.0,-5.0 L -12.5,0.0 L 5.0,5.0 L 0.0,0.0 z "
         id="path1252" />
    </marker>
    <marker
       style="overflow:visible;"
       id="marker1250"
       refX="0.0"
       refY="0.0"
       orient="auto">
      <path
         transform="scale(0.2) rotate(180) translate(6,0)"
         style="fill-rule:evenodd;stroke:#000000;stroke-width:1pt;stroke-opacity:1;fill:#000000;fill-opacity:1"
         d="M 0.0,0.0 L 5.0,-5.0 L -12.5,0.0 L 5.0,5.0 L 0.0,0.0 z "
         id="path1248" />
    </marker>
    <marker
       style="overflow:visible;"
       id="Arrow1Lend"
       refX="0.0"
       refY="0.0"
       orient="auto">
      <path
         transform="scale(0.8) rotate(180) translate(12.5,0)"
         style="fill-rule:evenodd;stroke:#000000;stroke-width:1pt;stroke-opacity:1;fill:#000000;fill-opacity:1"
         d="M 0.0,0.0 L 5.0,-5.0 L -12.5,0.0 L 5.0,5.0 L 0.0,0.0 z "
         id="path973" />
    </marker>
    <marker
       style="overflow:visible;"
       id="marker1242"
       refX="0.0"
       refY="0.0"
       orient="auto">
      <path
         transform="scale(0.4) rotate(180) translate(10,0)"
         style="fill-rule:evenodd;stroke:#000000;stroke-width:1pt;stroke-opacity:1;fill:#000000;fill-opacity:1"
         d="M 0.0,0.0 L 5.0,-5.0 L -12.5,0.0 L 5.0,5.0 L 0.0,0.0 z "
         id="path1240" />
    </marker>
    <marker
       style="overflow:visible;"
       id="Arrow2Mend"
       refX="0.0"
       refY="0.0"
       orient="auto">
      <path
         transform="scale(0.6) rotate(180) translate(0,0)"
         d="M 8.7185878,4.0337352 L -2.2072895,0.016013256 L 8.7185884,-4.0017078 C 6.9730900,-1.6296469 6.9831476,1.6157441 8.7185878,4.0337352 z "
         style="fill-rule:evenodd;stroke-width:0.625;stroke-linejoin:round;stroke:#000000;stroke-opacity:1;fill:#000000;fill-opacity:1"
         id="path997" />
    </marker>
    <marker
       style="overflow:visible;"
       id="Arrow1Send"
       refX="0.0"
       refY="0.0"
       orient="auto">
      <path
         transform="scale(0.2) rotate(180) translate(6,0)"
         style="fill-rule:evenodd;stroke:#000000;stroke-width:1pt;stroke-opacity:1;fill:#000000;fill-opacity:1"
         d="M 0.0,0.0 L 5.0,-5.0 L -12.5,0.0 L 5.0,5.0 L 0.0,0.0 z "
         id="path985" />
    </marker>
    <marker
       style="overflow:visible;"
       id="Arrow1Mend"
       refX="0.0"
       refY="0.0"
       orient="auto">
      <path
         transform="scale(0.4) rotate(180) translate(10,0)"
         style="fill-rule:evenodd;stroke:#000000;stroke-width:1pt;stroke-opacity:1;fill:#000000;fill-opacity:1"
         d="M 0.0,0.0 L 5.0,-5.0 L -12.5,0.0 L 5.0,5.0 L 0.0,0.0 z "
         id="path979" />
    </marker>
  </defs>
  <path
     id="path897"
     d="m 106.07602,145.44444 c 33.90059,18.04386 33.90059,18.04386 33.90059,18.04386 l 40.46199,16.9503 32.26023,9.29532 36.08772,8.20175 35.54094,5.46784 20.23099,-1.09357 9.8421,-3.82748 4.92106,-4.92106 1.09356,-8.20175 -5.46783,-14.76316 -8.20176,-19.13743 -14.21637,-21.87134"
     style="fill:none;stroke:#181475;stroke-width:1.13385827;stroke-linecap:butt;stroke-linejoin:miter;stroke-opacity:1;stroke-miterlimit:10;stroke-dasharray:none;fill-opacity:0.30735931" />
  <path
     id="path901"
     d="m 56.318713,150.3655 66.160817,83.65789 267.92398,-18.04386 -70.53509,-87.48538 z"
     style="fill:none;stroke:#000000;stroke-width:1px;stroke-linecap:butt;stroke-linejoin:miter;stroke-opacity:1" />
  <ellipse
     ry="2.8576553"
     rx="3.2324378"
     cy="167.76118"
     cx="201.48975"
     id="path903"
     style="opacity:0.95999995;fill:#008035;fill-opacity:1;stroke:#000000;stroke-width:0.68360287;stroke-miterlimit:10;stroke-dasharray:none;stroke-dashoffset:0;stroke-opacity:1" />
  <ellipse
     ry="2.8576553"
     rx="3.2324378"
     cy="267.3772"
     cx="106.07603"
     id="path903-7-4"
     style="font-style:normal;font-weight:normal;font-size:12px;font-family:Dialog;opacity:0.95999995;color-interpolation:auto;fill:#800080;fill-opacity:1;stroke:#000000;stroke-width:0.68360287;stroke-linecap:square;stroke-linejoin:miter;stroke-miterlimit:10;stroke-dasharray:none;stroke-dashoffset:0;stroke-opacity:1;color-rendering:auto;image-rendering:auto;shape-rendering:auto;text-rendering:auto" />
  <ellipse
     ry="4.0941343"
     rx="4.6310816"
     cy="65.451881"
     cx="331.80383"
     id="path903-7-4-1"
     style="font-style:normal;font-weight:normal;font-size:12px;font-family:Dialog;opacity:0.95999995;color-interpolation:auto;fill:#800080;fill-opacity:1;stroke:#000000;stroke-width:0.97939098;stroke-linecap:square;stroke-linejoin:miter;stroke-miterlimit:10;stroke-dasharray:none;stroke-dashoffset:0;stroke-opacity:1;color-rendering:auto;image-rendering:auto;shape-rendering:auto;text-rendering:auto" />
  <path
     id="path967"
     d="m 105.52924,47.570175 0.54678,188.093565 41.00878,20.231 33.90058,13.66959 44.28947,13.66959 51.39766,8.20175 21.32457,1.09357 9.8421,-2.18713 7.65497,-4.37427 1.64035,-3.82749 1.09357,-6.01462 -1.09357,-10.38889 -4.92105,-12.02924 -8.74854,-16.40351 -11.48245,-15.30994 2.18713,-189.187132 10.93567,19.68421 12.02924,22.964912 3.82749,9.842106 0.54678,7.108187 -1.64035,5.467836 -3.2807,4.374271 -9.84211,3.82748 c -17.49707,0.54679 -17.49707,1.09357 -17.49707,1.09357 l -39.36842,-5.46784 -26.7924,-7.108183 -44.28947,-12.576023 -25.69883,-9.842105 -20.77778,-9.295322 z M 320.96199,90.766082 318.22807,277.2193"
     style="fill:#000080;stroke:#000000;stroke-width:1px;stroke-linecap:butt;stroke-linejoin:miter;stroke-opacity:1;fill-opacity:0.17748918" />
  <path
     id="path969"
     d="m 293.91268,119.01192 c 0.22035,-6.12233 0.51045,-11.31605 0.64467,-11.5416 0.13422,-0.22555 2.82234,-0.41009 5.9736,-0.41009 5.22883,0 6.1698,-0.16764 10.76671,-1.91816 3.76062,-1.43205 5.48748,-2.4251 6.81418,-3.91858 l 1.77705,-2.000426 v 14.250566 14.25056 l -4.40571,0.39 c -2.42314,0.21449 -4.51899,0.27671 -4.65744,0.13826 -0.13845,-0.13846 0.12023,-0.96499 0.57485,-1.83674 0.92595,-1.77554 1.06986,-2.95197 0.36111,-2.95197 -0.5922,0 -3.35527,2.73091 -3.35527,3.31621 0,1.30653 -1.93522,2.06048 -6.13173,2.38888 -2.4918,0.19499 -5.48277,0.49405 -6.6466,0.66457 l -2.11604,0.31004 z"
     style="opacity:0.95999995;fill:#000080;fill-opacity:0.17748916;stroke:none;stroke-width:0.61997515;stroke-miterlimit:10;stroke-dasharray:none;stroke-dashoffset:0;stroke-opacity:1" />
  <path
     id="path975"
     d="M 56.318713,50.850877 V 244.41228 L 123.5731,331.89766 391.49708,310.02632 322.05556,224.72807 59.052632,246.59942"
     style="fill:none;stroke:#000000;stroke-width:1px;stroke-linecap:butt;stroke-linejoin:miter;stroke-opacity:1" />
  <path
     id="path977"
     d="m 51.944444,80.923977 c 4.921053,4.374269 4.921053,4.374269 4.921053,4.374269"
     style="fill:none;stroke:#000000;stroke-width:1px;stroke-linecap:butt;stroke-linejoin:miter;stroke-opacity:1" />
  <path
     id="path977-9"
     d="m 51.671053,135.60234 c 4.921053,4.37427 4.921053,4.37427 4.921053,4.37427"
     style="font-style:normal;font-weight:normal;font-size:12px;font-family:Dialog;color-interpolation:auto;fill:none;fill-opacity:1;stroke:#000000;stroke-width:1px;stroke-linecap:butt;stroke-linejoin:miter;stroke-miterlimit:10;stroke-dasharray:none;stroke-dashoffset:0;stroke-opacity:1;color-rendering:auto;image-rendering:auto;shape-rendering:auto;text-rendering:auto" />
  <path
     id="path977-9-0"
     d="m 51.124268,190.82748 c 4.921053,4.37427 4.921053,4.37427 4.921053,4.37427"
     style="font-style:normal;font-weight:normal;font-size:12px;font-family:Dialog;color-interpolation:auto;fill:none;fill-opacity:1;stroke:#000000;stroke-width:1px;stroke-linecap:butt;stroke-linejoin:miter;stroke-miterlimit:10;stroke-dasharray:none;stroke-dashoffset:0;stroke-opacity:1;color-rendering:auto;image-rendering:auto;shape-rendering:auto;text-rendering:auto" />
  <path
     id="path1009"
     d="m 56.865497,256.9883 c 8.748538,0 8.748538,0 8.748538,0"
     style="fill:none;stroke:#000000;stroke-width:1px;stroke-linecap:butt;stroke-linejoin:miter;stroke-opacity:1" />
  <path
     id="path1009-9"
     d="m 84.204678,293.62281 c 8.748538,0 8.748538,0 8.748538,0"
     style="font-style:normal;font-weight:normal;font-size:12px;font-family:Dialog;color-interpolation:auto;fill:none;fill-opacity:1;stroke:#000000;stroke-width:1px;stroke-linecap:butt;stroke-linejoin:miter;stroke-miterlimit:10;stroke-dasharray:none;stroke-dashoffset:0;stroke-opacity:1;color-rendering:auto;image-rendering:auto;shape-rendering:auto;text-rendering:auto" />
  <path
     id="path1009-8"
     d="m 99.51462,313.8538 c 8.74854,0 8.74854,0 8.74854,0"
     style="font-style:normal;font-weight:normal;font-size:12px;font-family:Dialog;color-interpolation:auto;fill:none;fill-opacity:1;stroke:#000000;stroke-width:1px;stroke-linecap:butt;stroke-linejoin:miter;stroke-miterlimit:10;stroke-dasharray:none;stroke-dashoffset:0;stroke-opacity:1;color-rendering:auto;image-rendering:auto;shape-rendering:auto;text-rendering:auto" />
  <path
     id="path1009-85"
     d="m 71.628657,275.03216 c 8.74854,0 8.74854,0 8.74854,0"
     style="font-style:normal;font-weight:normal;font-size:12px;font-family:Dialog;color-interpolation:auto;fill:none;fill-opacity:1;stroke:#000000;stroke-width:1px;stroke-linecap:butt;stroke-linejoin:miter;stroke-miterlimit:10;stroke-dasharray:none;stroke-dashoffset:0;stroke-opacity:1;color-rendering:auto;image-rendering:auto;shape-rendering:auto;text-rendering:auto" />
  <path
     id="path1038"
     d="m 189.73392,326.42982 c 4.92105,8.20176 4.92105,8.20176 4.92105,8.20176"
     style="fill:none;stroke:#000000;stroke-width:1px;stroke-linecap:butt;stroke-linejoin:miter;stroke-opacity:1" />
  <path
     id="path1038-8"
     d="m 257.2617,320.6886 c 4.92105,8.20176 4.92105,8.20176 4.92105,8.20176"
     style="font-style:normal;font-weight:normal;font-size:12px;font-family:Dialog;color-interpolation:auto;fill:none;fill-opacity:1;stroke:#000000;stroke-width:1px;stroke-linecap:butt;stroke-linejoin:miter;stroke-miterlimit:10;stroke-dasharray:none;stroke-dashoffset:0;stroke-opacity:1;color-rendering:auto;image-rendering:auto;shape-rendering:auto;text-rendering:auto" />
  <path
     id="path1038-4"
     d="m 324.51608,314.67397 c 4.92105,8.20176 4.92105,8.20176 4.92105,8.20176"
     style="font-style:normal;font-weight:normal;font-size:12px;font-family:Dialog;color-interpolation:auto;fill:none;fill-opacity:1;stroke:#000000;stroke-width:1px;stroke-linecap:butt;stroke-linejoin:miter;stroke-miterlimit:10;stroke-dasharray:none;stroke-dashoffset:0;stroke-opacity:1;color-rendering:auto;image-rendering:auto;shape-rendering:auto;text-rendering:auto" />
  <path
     id="path1038-4-3"
     d="m 391.49708,310.02632 c 4.92105,8.20176 4.92105,8.20176 4.92105,8.20176"
     style="font-style:normal;font-weight:normal;font-size:12px;font-family:Dialog;color-interpolation:auto;fill:none;fill-opacity:1;stroke:#000000;stroke-width:1px;stroke-linecap:butt;stroke-linejoin:miter;stroke-miterlimit:10;stroke-dasharray:none;stroke-dashoffset:0;stroke-opacity:1;color-rendering:auto;image-rendering:auto;shape-rendering:auto;text-rendering:auto" />
  <path
     id="path1076"
     d="m 317.72666,175.82247 c -1.76895,-5.90421 -10.47442,-25.0909 -13.55244,-29.8693 l -3.30009,-5.12315 3.90285,-5.34236 3.90284,-5.34235 5.36115,-0.3946 c 2.94862,-0.21703 5.4143,-0.30558 5.47928,-0.19678 0.2397,0.40139 -0.58538,48.08411 -0.83638,48.3351 -0.14306,0.14307 -0.57381,-0.78688 -0.95721,-2.06656 z"
     style="opacity:0.95999995;fill:#000080;fill-opacity:0.30735934;stroke:none;stroke-width:0.61997515;stroke-miterlimit:10;stroke-dasharray:none;stroke-dashoffset:0;stroke-opacity:1" />
  <path
     id="path1078"
     d="m 297.079,135.08457 -2.29546,-3.69246 4.21422,-0.41476 c 7.19925,-0.70852 7.15448,-0.7508 3.91363,3.69546 -1.53441,2.10511 -2.95793,3.88975 -3.16338,3.96585 -0.20546,0.0761 -1.40651,-1.52324 -2.66901,-3.55409 z"
     style="opacity:0.95999995;fill:#000080;fill-opacity:0.30735934;stroke:none;stroke-width:0.61997515;stroke-miterlimit:10;stroke-dasharray:none;stroke-dashoffset:0;stroke-opacity:1" />
  <path
     id="path1080"
     d="m 315.29071,259.14973 c -3.20831,-7.92168 -10.37356,-21.0463 -14.54732,-26.64642 l -3.70028,-4.96482 10.46602,-0.85792 c 5.75631,-0.47185 10.55148,-0.77677 10.65594,-0.67761 0.10446,0.0992 -0.0186,8.78533 -0.27339,19.30259 l -0.46332,19.12227 z"
     style="opacity:0.95999995;fill:#000080;fill-opacity:0.30735934;stroke:none;stroke-width:0.61997515;stroke-miterlimit:10;stroke-dasharray:none;stroke-dashoffset:0;stroke-opacity:1" />
  <path
     id="path1082"
     d="m 292.84796,213.05849 c 0.21367,-4.91929 0.45739,-9.02405 0.54159,-9.12168 0.0842,-0.0976 2.57476,-0.30564 5.53456,-0.46225 6.78914,-0.35921 14.58181,-3.03711 17.85447,-6.13557 l 2.08413,-1.9732 -0.37984,12.30263 c -0.20891,6.76645 -0.40861,12.33672 -0.44378,12.37838 -0.0352,0.0417 -4.36986,0.3527 -9.63266,0.6912 -5.26279,0.33849 -11.00382,0.76151 -12.75784,0.94004 l -3.18912,0.3246 z"
     style="opacity:0.95999995;fill:#000080;fill-opacity:0.30735934;stroke:none;stroke-width:0.61997515;stroke-miterlimit:10;stroke-dasharray:none;stroke-dashoffset:0;stroke-opacity:1" />
  <path
     id="path1084"
     d="m 295.02026,224.83067 c -0.50467,-0.77022 -0.83641,-1.46549 -0.7372,-1.54504 0.2382,-0.191 19.26904,-1.40812 21.95307,-1.40402 1.85232,0.003 2.06871,0.14229 1.91374,1.23345 -0.16711,1.17668 -0.52001,1.25798 -8.10309,1.8667 -4.3606,0.35004 -9.31899,0.77434 -11.01865,0.94288 -2.87341,0.28492 -3.15469,0.20815 -4.00787,-1.09397 z"
     style="opacity:0.95999995;fill:#000080;fill-opacity:0.30735934;stroke:none;stroke-width:0.61997515;stroke-miterlimit:10;stroke-dasharray:none;stroke-dashoffset:0;stroke-opacity:1" />
  <path
     id="path1094"
     d="m 294.26647,91.302198 c 0.042,-8.023651 0.22657,-23.781538 0.41009,-35.017528 l 0.33367,-20.429072 4.06809,7.306265 c 8.07533,14.50327 17.38978,32.661771 19.35312,37.728868 2.16646,5.591309 2.59799,10.041376 1.39773,14.413655 -1.70259,6.202154 -8.48939,9.789374 -19.4878,10.300434 l -6.15131,0.28583 z"
     style="opacity:0.95999995;fill:none;fill-opacity:0.30735934;stroke:none;stroke-width:0.61997515;stroke-miterlimit:10;stroke-dasharray:none;stroke-dashoffset:0;stroke-opacity:1" />
  <path
     id="path1096"
     d="m 294.26647,91.302198 c 0.042,-8.023651 0.22657,-23.781538 0.41009,-35.017528 l 0.33367,-20.429072 4.06809,7.306265 c 8.07533,14.50327 17.38978,32.661771 19.35312,37.728868 2.16646,5.591309 2.59799,10.041376 1.39773,14.413655 -1.70259,6.202154 -8.48939,9.789374 -19.4878,10.300434 l -6.15131,0.28583 z"
     style="opacity:0.95999995;fill:none;fill-opacity:0.30735934;stroke:none;stroke-width:0.61997515;stroke-miterlimit:10;stroke-dasharray:none;stroke-dashoffset:0;stroke-opacity:1" />
  <path
     id="path1098"
     d="m 293.9222,120.10001 c 0.17222,-5.51786 0.36446,-10.67064 0.42719,-11.45062 l 0.11406,-1.41816 5.94354,-0.11618 c 5.66587,-0.11075 7.22237,-0.43418 12.10032,-2.51436 0.90219,-0.38473 2.18316,-0.86306 2.8466,-1.06295 0.66344,-0.19989 1.8163,-1.08845 2.56192,-1.97457 0.74562,-0.88612 1.49459,-1.611123 1.66437,-1.611123 0.16978,0 0.30869,6.274343 0.30869,13.942983 v 13.94298 l -1.77705,0.0259 c -0.97737,0.0142 -2.94579,0.12969 -4.37427,0.25657 -2.27252,0.20185 -2.59722,0.10011 -2.59722,-0.81379 0,-0.57446 0.24605,-1.19655 0.54678,-1.38241 0.69591,-0.43009 0.71837,-2.46053 0.0272,-2.46053 -0.28576,0 -1.42765,1.08636 -2.53752,2.41412 -2.06364,2.46877 -3.07369,2.88493 -8.15198,3.35879 -1.20292,0.11225 -3.36358,0.35973 -4.80145,0.54995 l -2.61433,0.34587 z"
     style="opacity:0.95999995;fill:none;fill-opacity:0.30735934;stroke:none;stroke-width:0.61997515;stroke-miterlimit:10;stroke-dasharray:none;stroke-dashoffset:0;stroke-opacity:1" />
  <path
     id="path1100"
     d="m 293.26739,176.397 0.34813,-25.76864 1.38016,-1.96316 c 0.75909,-1.07973 2.19621,-2.923 3.1936,-4.09615 l 1.81344,-2.133 3.07063,4.86692 c 3.14468,4.98427 8.28734,16.35736 13.04435,28.8478 2.5009,6.56657 2.67762,7.36203 2.67762,12.05209 v 5.0215 l -2.32383,2.25516 c -3.54453,3.43978 -10.49077,5.9085 -17.85908,6.34717 l -5.69315,0.33894 z"
     style="opacity:0.95999995;fill:#00007d;fill-opacity:0.17647059;stroke:none;stroke-width:0.61997515;stroke-miterlimit:10;stroke-dasharray:none;stroke-dashoffset:0;stroke-opacity:1" />
  <path
     id="path1102"
     d="m 293.64327,140.2433 c 0,-3.8156 0.0956,-6.93745 0.21232,-6.93745 0.11678,0 1.23024,1.62348 2.47436,3.60773 l 2.26204,3.60772 -2.47436,3.32973 -2.47436,3.32972 z"
     style="opacity:0.95999995;fill:#00007d;fill-opacity:0.17647059;stroke:none;stroke-width:0.61997515;stroke-miterlimit:10;stroke-dasharray:none;stroke-dashoffset:0;stroke-opacity:1" />
  <path
     id="path1104"
     d="m 293.64327,140.47078 c 0,-4.2575 0.19587,-6.56164 0.53971,-6.34913 0.75033,0.46373 3.69718,4.80739 3.91636,5.7727 0.099,0.43619 -0.86306,2.24793 -2.138,4.02609 l -2.31807,3.23302 z"
     style="opacity:0.95999995;fill:#00007d;fill-opacity:0.17647059;stroke:none;stroke-width:0.61997515;stroke-miterlimit:10;stroke-dasharray:none;stroke-dashoffset:0;stroke-opacity:1" />
  <path
     id="path1106"
     d="m 293.32881,176.41947 0.32878,-25.71372 1.64518,-2.27524 c 0.90484,-1.25139 2.32555,-3.16229 3.15713,-4.24644 l 1.51196,-1.9712 1.97941,3.33816 c 1.08867,1.83598 2.77213,4.93749 3.74102,6.89224 0.96889,1.95476 2.03745,3.73487 2.37458,3.95581 0.33712,0.22095 0.4221,0.40549 0.18883,0.41009 -0.23328,0.005 -0.0437,0.74395 0.42116,1.643 0.46491,0.89904 0.78223,1.69871 0.70514,1.77704 -0.0771,0.0783 0.4301,1.06512 1.12708,2.19287 0.69699,1.12774 1.09585,2.05043 0.88637,2.05043 -0.20948,0 0.0342,0.63341 0.54141,1.40758 0.50725,0.77416 1.00427,1.83334 1.10449,2.35372 0.10021,0.52038 0.61394,1.91691 1.14162,3.10339 0.52767,1.18648 0.98165,2.32128 1.00883,2.52177 0.0272,0.20048 0.23397,0.54906 0.45952,0.77461 0.22554,0.22555 0.41008,0.76248 0.41008,1.19319 0,0.43071 0.35044,1.55845 0.77874,2.50609 1.17635,2.60272 1.95518,7.08605 1.95518,11.25499 0,3.66637 -0.0413,3.77429 -2.18871,5.71431 -1.20379,1.08756 -2.41648,1.97737 -2.69486,1.97737 -0.27838,0 -0.85294,0.34679 -1.27679,0.77064 -1.52034,1.52034 -9.70505,3.47733 -16.2002,3.87351 l -3.43473,0.20951 z"
     style="opacity:0.95999995;fill:#00007d;fill-opacity:0.17647059;stroke:none;stroke-width:0.61997515;stroke-miterlimit:10;stroke-dasharray:none;stroke-dashoffset:0;stroke-opacity:1" />
  <path
     id="path1108"
     d="m 229.12281,192.67503 c -9.47303,-2.19471 -24.23619,-6.01652 -32.80702,-8.49292 -14.04079,-4.05684 -17.58593,-5.34253 -35.81433,-12.98853 -15.87275,-6.65791 -23.52912,-10.23837 -35.54093,-16.62052 -11.59785,-6.1622 -14.9015,-8.13572 -13.62538,-8.13946 0.92651,-0.003 41.64822,-3.32559 90.49269,-7.38416 48.84447,-4.05857 89.11569,-7.38028 89.4916,-7.38158 0.51853,-0.002 0.68348,2.11821 0.68348,8.78418 v 8.78655 l -3.6769,4.74635 c -9.16621,11.83223 -17.72428,21.38925 -28.25921,31.55782 -6.98856,6.74553 -11.7704,10.95596 -12.51511,11.01962 -0.66287,0.0567 -8.95587,-1.69264 -18.42889,-3.88735 z M 204.0644,170.129 c 2.18479,-1.97721 0.58522,-5.65649 -2.45916,-5.65649 -3.17583,0 -4.79942,3.29046 -2.74418,5.56148 1.12754,1.24592 3.87614,1.29611 5.20334,0.095 z"
     style="opacity:0.95999995;fill:#00007d;fill-opacity:0.17647059;stroke:none;stroke-width:0.61997515;stroke-miterlimit:10;stroke-dasharray:none;stroke-dashoffset:0;stroke-opacity:1" />
  <path
     id="path1110"
     d="m 267.78772,200.11245 c -9.27202,-1.46357 -16.2244,-2.80391 -16.14185,-3.11197 0.0797,-0.29762 4.92404,-5.21612 10.76511,-10.93001 10.22943,-10.00671 18.25875,-18.94078 25.76446,-28.6676 3.40922,-4.41808 3.562,-4.5406 3.74816,-3.00566 0.10674,0.88009 0.0163,11.99588 -0.20105,24.70177 l -0.39513,23.1016 -1.71269,0.006 c -0.94197,0.003 -2.57387,0.11192 -3.62643,0.24135 -1.05255,0.12944 -9.24282,-0.92154 -18.20058,-2.3355 z"
     style="opacity:0.95999995;fill:#00007d;fill-opacity:0.17647059;stroke:none;stroke-width:0.61997515;stroke-miterlimit:10;stroke-dasharray:none;stroke-dashoffset:0;stroke-opacity:1" />
  <path
     id="path1112"
     d="m 244.93356,196.18146 c -0.42581,-0.2326 -1.75841,-0.56159 -2.96134,-0.73109 -2.55567,-0.36012 -14.01545,-2.90304 -16.40351,-3.63993 -0.90219,-0.2784 -2.25548,-0.62378 -3.00731,-0.76753 -0.75182,-0.14374 -2.20166,-0.51455 -3.22185,-0.82401 -1.02019,-0.30946 -2.04891,-0.44274 -2.28605,-0.29618 -0.23714,0.14655 -0.57247,0.0378 -0.74519,-0.24166 -0.2583,-0.41793 -2.99728,-1.14353 -5.50275,-1.45775 -0.30074,-0.0377 -1.24408,-0.35476 -2.09633,-0.70453 -0.85224,-0.34978 -1.75794,-0.50716 -2.01265,-0.34974 -0.25472,0.15742 -0.60043,0.0641 -0.76826,-0.2075 -0.16782,-0.27154 -1.23055,-0.65949 -2.36161,-0.86212 -1.13106,-0.20262 -2.79463,-0.59218 -3.69683,-0.86568 -0.90219,-0.2735 -3.36272,-1.02139 -5.46783,-1.66197 -2.10512,-0.64059 -4.19657,-1.24129 -4.64766,-1.33489 -0.4511,-0.0936 -1.55834,-0.45538 -2.46053,-0.80396 -0.90219,-0.34857 -1.64035,-0.59918 -1.64035,-0.5569 0,0.0423 -0.69729,-0.18823 -1.54954,-0.51225 -0.85225,-0.32403 -1.77494,-0.44983 -2.05044,-0.27956 -0.27549,0.17026 -0.5009,0.0227 -0.5009,-0.32798 0,-0.35066 -0.36908,-0.49593 -0.82017,-0.32283 -0.4511,0.17311 -0.82018,0.0962 -0.82018,-0.17094 0,-0.37124 -4.07618,-2.06816 -6.01462,-2.50389 -0.15036,-0.0338 -1.01155,-0.3821 -1.91374,-0.774 -0.90219,-0.3919 -2.25548,-0.95072 -3.00731,-1.24183 -0.75183,-0.2911 -2.06355,-0.8756 -2.91493,-1.29887 -0.85138,-0.42328 -1.76735,-0.7696 -2.03549,-0.7696 -0.26814,0 -1.90905,-0.64212 -3.64648,-1.42693 -1.73742,-0.78482 -4.02013,-1.80639 -5.07269,-2.27017 -1.05256,-0.46378 -2.5843,-1.18526 -3.40386,-1.60329 -0.81957,-0.41804 -1.62182,-0.74477 -1.78278,-0.72607 -0.16096,0.0187 -1.02824,-0.34639 -1.92728,-0.8113 -0.89904,-0.46491 -1.63462,-0.69837 -1.63462,-0.51881 0,0.17957 -0.4008,-0.0743 -0.89068,-0.56418 -0.48987,-0.48988 -1.21213,-0.76733 -1.60502,-0.61656 -0.39289,0.15077 -0.79176,0.0722 -0.88637,-0.17467 -0.2186,-0.5703 -7.88937,-4.43298 -9.36931,-4.71799 -0.61118,-0.1177 -1.25234,-0.43201 -1.42481,-0.69846 -0.17247,-0.26646 -2.65108,-1.65737 -5.50802,-3.09092 -2.85695,-1.43354 -6.42471,-3.22479 -7.92836,-3.98055 -1.50366,-0.75575 -2.91469,-1.64659 -3.13564,-1.97964 -0.22094,-0.33305 -0.40548,-0.41131 -0.41008,-0.1739 -0.005,0.2374 -0.31594,0.1758 -0.69186,-0.13689 -0.37591,-0.31269 -1.29861,-1.05237 -2.05044,-1.64372 -1.25549,-0.98751 -1.27778,-1.0767 -0.27339,-1.09383 0.60146,-0.0103 3.67712,-0.24997 6.8348,-0.53269 3.15767,-0.28272 7.83267,-0.66444 10.38889,-0.84828 2.55621,-0.18384 5.50884,-0.42988 6.5614,-0.54676 1.05256,-0.11688 3.88216,-0.35742 6.28801,-0.53453 2.40585,-0.1771 5.48151,-0.42857 6.8348,-0.55881 1.35329,-0.13024 4.42895,-0.37957 6.83479,-0.55408 2.40585,-0.1745 5.48151,-0.41907 6.8348,-0.54349 1.35329,-0.12442 4.18289,-0.366 6.28801,-0.53683 2.10512,-0.17084 5.24213,-0.42906 6.97114,-0.57382 1.72901,-0.14476 4.61996,-0.38623 6.42435,-0.53659 l 6.5614,-0.54679 6.56141,-0.54678 c 7.34531,-0.61211 9.74307,-0.80758 13.3969,-1.09215 2.10512,-0.16395 5.05775,-0.40343 6.56141,-0.53217 1.50365,-0.12874 4.45628,-0.37554 6.5614,-0.54845 4.3499,-0.35729 9.12612,-0.75557 13.12281,-1.09428 1.50365,-0.12743 4.45629,-0.37241 6.5614,-0.5444 2.10512,-0.17199 5.05775,-0.41609 6.56141,-0.54244 1.50365,-0.12636 4.57931,-0.37761 6.83479,-0.55834 5.4145,-0.43387 9.44997,-0.76845 13.12281,-1.08801 1.65402,-0.14391 4.72968,-0.39655 6.83479,-0.56142 4.83977,-0.37904 9.60579,-0.77705 13.16904,-1.09973 2.74923,-0.24897 2.78633,-0.23159 3.33713,1.56306 0.32254,1.05093 0.44241,4.78895 0.2848,8.88054 l -0.2722,7.06571 -3.13803,4.10143 c -1.72591,2.25579 -3.59724,4.63433 -4.1585,5.28565 -0.56127,0.65132 -1.49103,1.75855 -2.06615,2.46052 -4.00127,4.88386 -13.09873,14.83556 -19.13648,20.93338 -11.73299,11.84974 -16.15094,15.20077 -18.41207,13.96562 z M 204.0644,170.129 c 2.18479,-1.97721 0.58522,-5.65649 -2.45916,-5.65649 -3.17583,0 -4.79942,3.29046 -2.74418,5.56148 1.12754,1.24592 3.87614,1.29611 5.20334,0.095 z"
     style="opacity:0.95999995;fill:#00007d;fill-opacity:0.17647059;stroke:none;stroke-width:0.61997515;stroke-miterlimit:10;stroke-dasharray:none;stroke-dashoffset:0;stroke-opacity:1" />
  <path
     id="path1114"
     d="m 282.46302,202.32074 c -0.0842,-0.0843 -0.86322,-0.24542 -1.73126,-0.35811 -3.48909,-0.45294 -17.54848,-2.61485 -22.08264,-3.39564 -0.75182,-0.12946 -1.98209,-0.33123 -2.73392,-0.44838 -2.02137,-0.31497 -3.82748,-0.92245 -3.82748,-1.28738 0,-0.17641 5.48522,-5.86844 12.18937,-12.64894 6.70416,-6.78051 14.97157,-15.77293 18.37202,-19.98317 8.22467,-10.18328 8.1654,-10.11549 8.84422,-10.11549 0.42023,0 0.48712,6.91817 0.23127,23.92178 -0.19796,13.15698 -0.43841,24.00033 -0.53432,24.09634 -0.21896,0.21918 -8.5191,0.42746 -8.72726,0.21899 z"
     style="opacity:0.95999995;fill:#00007d;fill-opacity:0.17647059;stroke:none;stroke-width:0.61997515;stroke-miterlimit:10;stroke-dasharray:none;stroke-dashoffset:0;stroke-opacity:1" />
  <path
     id="path1116"
     d="m 293.28681,188.85254 c 0.19606,-7.19106 0.35646,-18.6735 0.35646,-25.51654 v -12.44188 l 3.0936,-4.14182 c 2.43912,-3.26559 3.24885,-4.01296 3.82748,-3.53274 0.40364,0.33499 0.7339,0.94803 0.7339,1.3623 0,0.41428 0.24605,0.75323 0.54678,0.75323 0.30073,0 0.54678,0.36908 0.54678,0.82017 0,0.4511 0.28706,0.82018 0.63792,0.82018 0.35085,0 0.48745,0.15046 0.30355,0.33436 -0.36671,0.36671 4.47429,9.66845 5.18594,9.96453 0.24245,0.10087 0.31312,0.39 0.15706,0.64251 -0.38705,0.62627 0.86605,3.27497 1.5494,3.27497 0.30258,0 0.39477,0.15538 0.20486,0.34529 -0.1899,0.1899 -0.0556,0.86655 0.29843,1.50365 0.35404,0.63711 0.59144,1.34291 0.52755,1.56846 -0.0639,0.22555 0.12988,0.41009 0.43061,0.41009 0.30074,0 0.50643,0.18454 0.45709,0.41009 -0.17529,0.80148 0.7627,3.41739 1.22538,3.41739 0.25869,0 0.34089,0.33736 0.18267,0.74968 -0.15822,0.41232 0.0838,1.12118 0.53791,1.57525 0.45407,0.45408 0.69613,0.95504 0.53791,1.11326 -0.15822,0.15822 0.14811,1.11021 0.68073,2.11553 0.53262,1.00533 0.99049,2.07392 1.01748,2.37465 0.027,0.30073 0.4766,1.90007 0.99914,3.55409 0.52254,1.65402 1.10372,5.15812 1.29151,7.7869 l 0.34145,4.77959 -2.05832,1.94124 c -1.80913,1.70623 -6.68188,4.63884 -8.22026,4.94727 -0.30073,0.0603 -2.39217,0.5268 -4.64766,1.03668 -2.25548,0.50987 -5.67608,0.96737 -7.60134,1.01666 l -3.50047,0.0896 z"
     style="opacity:0.95999995;fill:#00007d;fill-opacity:0.17647059;stroke:none;stroke-width:0.61997515;stroke-miterlimit:10;stroke-dasharray:none;stroke-dashoffset:0;stroke-opacity:1" />
  <path
     id="path1118"
     d="m 293.65074,141.6443 c 0.004,-2.6314 0.14988,-5.31523 0.32395,-5.96407 0.29869,-1.11344 0.36739,-1.12682 1.22279,-0.23811 0.49848,0.51788 1.3766,1.85018 1.95139,2.96066 l 1.04508,2.01905 -2.06853,3.00341 c -1.1377,1.65188 -2.1616,3.00341 -2.27534,3.00341 -0.11374,0 -0.20345,-2.15296 -0.19934,-4.78435 z"
     style="opacity:0.95999995;fill:#00007d;fill-opacity:0.17647059;stroke:none;stroke-width:0.61997515;stroke-miterlimit:10;stroke-dasharray:none;stroke-dashoffset:0;stroke-opacity:1" />
  <path
     id="path1120"
     d="m 81.307092,180.70259 c -20.513413,-25.94674 -23.263753,-29.6449 -22.144737,-29.77624 3.555198,-0.41729 45.587035,-3.83372 45.708355,-3.71527 0.0776,0.0758 0.0776,14.30833 0,31.62781 l -0.14118,31.48997 z"
     style="opacity:0.95999995;fill:#ffff00;fill-opacity:0.17647059;stroke:none;stroke-width:0.61997515;stroke-miterlimit:10;stroke-dasharray:none;stroke-dashoffset:0;stroke-opacity:1" />
  <path
     id="path1122"
     d="m 114.72578,223.10018 -8.0476,-10.23731 -0.0174,-33.00222 c -0.0149,-28.13626 0.0959,-32.95871 0.75138,-32.70718 0.42286,0.16227 7.74293,4.02431 16.26681,8.58233 12.4384,6.65124 19.49194,9.96364 35.72897,16.7786 18.45172,7.7445 21.67365,8.90919 36.63451,13.2429 9.02193,2.61338 23.96894,6.45953 33.21558,8.547 9.24663,2.08748 16.81275,3.92098 16.81359,4.07446 0.004,0.76811 -11.03106,7.64931 -12.26707,7.64931 -1.4625,0 -3.58231,1.69212 -3.59616,2.87061 -0.0106,0.90074 -7.78503,6.07984 -19.94957,13.28982 l -9.8421,5.83346 -35.26755,2.36732 c -19.39715,1.30202 -36.86688,2.49801 -38.82163,2.65776 l -3.5541,0.29045 z"
     style="opacity:0.95999995;fill:#ffff00;fill-opacity:0.17647059;stroke:none;stroke-width:0.61997515;stroke-miterlimit:10;stroke-dasharray:none;stroke-dashoffset:0;stroke-opacity:1" />
  <path
     id="path1124"
     d="m 205.37959,227.42396 c 0.2777,-0.24552 4.1957,-2.61193 8.70667,-5.25869 4.51096,-2.64676 10.1458,-6.14221 12.52186,-7.76765 3.01475,-2.06237 4.49343,-2.78204 4.89371,-2.38175 0.31549,0.31548 1.50294,0.5736 2.63878,0.5736 2.43475,0 4.06812,-1.86203 3.52646,-4.02015 -0.38564,-1.5365 -0.19187,-1.72207 6.60811,-6.32838 l 5.03688,-3.41198 17.92803,2.69803 c 11.92255,1.79425 18.98121,2.61675 21.07204,2.45538 l 3.14401,-0.24264 v 9.02901 9.02901 l -3.4174,0.32579 c -1.87957,0.17919 -20.14897,1.42125 -40.59868,2.76015 -20.44971,1.3389 -38.39271,2.55863 -39.87334,2.71051 -1.48062,0.15188 -2.46483,0.0753 -2.18713,-0.17024 z"
     style="opacity:0.95999995;fill:#ffff00;fill-opacity:0.17647059;stroke:none;stroke-width:0.61997515;stroke-miterlimit:10;stroke-dasharray:none;stroke-dashoffset:0;stroke-opacity:1" />
  <path
     id="path1126"
     d="m 292.76366,218.16835 c 0.17588,-2.01583 0.38423,-6.12566 0.463,-9.13297 l 0.14322,-5.46784 5.57222,-0.10016 c 3.06472,-0.0551 6.10044,-0.38286 6.74606,-0.72838 0.64561,-0.34553 1.82366,-0.74606 2.61789,-0.89008 0.79423,-0.14402 1.63006,-0.55441 1.85741,-0.91197 0.22735,-0.35756 0.41713,-0.4776 0.42173,-0.26675 0.0148,0.67975 4.09228,-1.42984 5.76086,-2.98058 0.88986,-0.82701 1.77702,-1.50366 1.97148,-1.50366 0.37989,0 0.0893,14.45735 -0.4039,20.09482 -0.34502,3.94366 0.0747,3.71021 -7.59345,4.22395 -6.14602,0.41177 -10.56445,0.73336 -14.67938,1.06843 l -3.19693,0.26031 z"
     style="opacity:0.95999995;fill:#ffff00;fill-opacity:0.17647059;stroke:none;stroke-width:0.61997515;stroke-miterlimit:10;stroke-dasharray:none;stroke-dashoffset:0;stroke-opacity:1" />
  <path
     id="path1128"
     d="m 320.06659,204.67129 c 0.18404,-8.42606 0.47112,-28.22309 0.63794,-43.99339 0.16683,-15.7703 0.39037,-28.76033 0.49677,-28.86672 0.22136,-0.22137 67.55406,83.16082 67.33678,83.38724 -0.11235,0.11708 -25.46368,1.8854 -66.40382,4.63184 l -2.40229,0.16115 z"
     style="opacity:0.95999995;fill:#ffff00;fill-opacity:0.17647059;stroke:none;stroke-width:0.61997515;stroke-miterlimit:10;stroke-dasharray:none;stroke-dashoffset:0;stroke-opacity:1" />
  <path
     id="path1130"
     d="m 317.80592,176.63845 c 0.21603,-0.85055 -0.75884,-3.96418 -1.24118,-3.96418 -0.27683,0 -0.4742,-0.18454 -0.43859,-0.41009 0.0356,-0.22555 0.005,-0.59463 -0.0683,-0.82017 -0.0732,-0.22555 -0.18392,-0.59463 -0.24603,-0.82018 -0.76908,-2.79282 -1.03409,-3.4174 -1.45,-3.4174 -0.26813,0 -0.44715,-0.18454 -0.39782,-0.41008 0.19548,-0.89377 -0.78938,-3.4174 -1.33366,-3.4174 -0.31826,0 -0.42713,-0.15151 -0.24195,-0.33669 0.18517,-0.18518 -0.24879,-1.47696 -0.96436,-2.87061 -0.71557,-1.39366 -1.9107,-4.05853 -2.65583,-5.92193 -0.74514,-1.86339 -1.99254,-4.22412 -2.772,-5.24605 -0.77947,-1.02194 -1.41721,-2.1424 -1.41721,-2.48993 0,-0.34753 -0.26058,-0.63187 -0.57906,-0.63187 -0.31847,0 -0.43633,-0.23093 -0.26189,-0.51318 0.17444,-0.28224 -0.1186,-0.76687 -0.65121,-1.07694 -0.5326,-0.31007 -0.77816,-0.57124 -0.54568,-0.58039 0.23248,-0.009 0.0267,-0.62093 -0.45721,-1.35954 -1.0139,-1.5474 -1.10775,-1.33732 3.25685,-7.29081 1.8277,-2.49307 3.8188,-4.63085 4.42465,-4.75063 0.60586,-0.11978 3.00847,-0.33701 5.33913,-0.48273 l 4.23758,-0.26496 0.0861,3.92202 c 0.0474,2.15711 0.0635,4.29109 0.0358,4.74219 -0.0277,0.4511 -0.2268,9.3705 -0.44242,19.82091 -0.21562,10.4504 -0.60079,19.00073 -0.85593,19.00073 -0.25514,0 -0.41701,-0.18454 -0.35972,-0.41009 z"
     style="opacity:0.95999995;fill:#ffff00;fill-opacity:0.17647059;stroke:none;stroke-width:0.61997515;stroke-miterlimit:10;stroke-dasharray:none;stroke-dashoffset:0;stroke-opacity:1" />
  <path
     id="path1132"
     d="m 298.42763,137.08777 c -0.52628,-0.5764 -0.77233,-1.05583 -0.54678,-1.06539 0.22555,-0.01 -0.0675,-0.37865 -0.65129,-0.82018 -0.58376,-0.44153 -0.82981,-0.81061 -0.54679,-0.82017 0.28303,-0.01 0.14552,-0.31802 -0.30558,-0.68546 -1.52797,-1.2446 -1.1523,-2.00876 1.17011,-2.38013 3.55294,-0.56813 6.65157,-0.51778 6.86133,0.11151 0.213,0.63899 -4.04141,6.82566 -4.64413,6.75339 -0.209,-0.0251 -0.81059,-0.51717 -1.33687,-1.09357 z"
     style="opacity:0.95999995;fill:#ffff00;fill-opacity:0.17647059;stroke:none;stroke-width:0.61997515;stroke-miterlimit:10;stroke-dasharray:none;stroke-dashoffset:0;stroke-opacity:1" />
  <path
     id="path1134"
     d="M 231.85874,206.15408 C 204.55459,171.70011 204.55459,171.70011 204.55459,171.70011"
     style="fill:none;stroke:#000000;stroke-width:0.94570088;stroke-linecap:butt;stroke-linejoin:miter;stroke-miterlimit:10;stroke-dasharray:none;stroke-opacity:1;marker-end:url(#Arrow2Mend)" />
  <path
     id="path1238"
     d="M 204.48279,165.13335 C 325.36639,69.406658 325.36639,69.406658 325.36639,69.406658"
     style="fill:none;stroke:#000000;stroke-width:0.97437257;stroke-linecap:butt;stroke-linejoin:miter;stroke-miterlimit:10;stroke-dasharray:0.9743726, 0.9743726;stroke-dashoffset:0;stroke-opacity:1;marker-end:url(#marker1268)" />
  <path
     id="path1244"
     d="M 198.48517,169.49051 111.3287,263.34204"
     style="fill:none;stroke:#000000;stroke-width:0.97901648;stroke-linecap:butt;stroke-linejoin:miter;stroke-miterlimit:10;stroke-dasharray:0.97901646, 0.97901646;stroke-dashoffset:0;stroke-opacity:1;marker-end:url(#marker1258)" />
  <path
     id="path895"
     d="m 68.347954,234.57018 20.777777,6.01462 27.885959,3.82748 h 25.69883 l 25.15205,-4.37426 32.26023,-10.93568 22.96492,-13.66959 26.24561,-18.04386 24.05848,-23.51169 11.48246,-13.66959 13.1228,-16.9503 13.66959,-18.59064"
     style="fill:none;stroke:#bd0909;stroke-width:2.26771654;stroke-linecap:butt;stroke-linejoin:miter;stroke-miterlimit:10;stroke-dasharray:none;stroke-opacity:1" />
  <ellipse
     ry="3.8936448"
     rx="4.4042978"
     cy="208.25824"
     cx="232.72762"
     id="path903-8"
     style="font-style:normal;font-weight:normal;font-size:12px;font-family:Dialog;opacity:0.95999995;color-interpolation:auto;fill:#800008;fill-opacity:1;stroke:#000000;stroke-width:0.93143034;stroke-linecap:square;stroke-linejoin:miter;stroke-miterlimit:10;stroke-dasharray:none;stroke-dashoffset:0;stroke-opacity:1;color-rendering:auto;image-rendering:auto;shape-rendering:auto;text-rendering:auto" />
  <flowRoot
     transform="translate(-16.238645)"
     style="font-style:normal;font-variant:normal;font-weight:normal;font-stretch:normal;font-size:16px;line-height:1.25;font-family:sans-serif;-inkscape-font-specification:'sans-serif, Normal';font-variant-ligatures:normal;font-variant-caps:normal;font-variant-numeric:normal;font-feature-settings:normal;text-align:center;letter-spacing:0px;word-spacing:0px;writing-mode:lr-tb;text-anchor:middle;fill:#000000;fill-opacity:1;stroke:none"
     id="flowRoot1270"
     xml:space="preserve"><flowRegion
       id="flowRegion1272"><rect
         y="65.067253"
         x="33.900585"
         height="24.605263"
         width="43.195904"
         id="rect1274" /></flowRegion><flowPara
       id="flowPara1276">$15$</flowPara></flowRoot>  <flowRoot
     style="font-style:normal;font-variant:normal;font-weight:normal;font-stretch:normal;font-size:16px;line-height:1.25;font-family:sans-serif;-inkscape-font-specification:'sans-serif, Normal';font-variant-ligatures:normal;font-variant-caps:normal;font-variant-numeric:normal;font-feature-settings:normal;text-align:center;letter-spacing:0px;word-spacing:0px;writing-mode:lr-tb;text-anchor:middle;color-interpolation:auto;fill:#000000;fill-opacity:1;stroke:none;stroke-width:1;stroke-linecap:square;stroke-linejoin:miter;stroke-miterlimit:10;stroke-dasharray:none;stroke-dashoffset:0;stroke-opacity:1;color-rendering:auto;image-rendering:auto;shape-rendering:auto;text-rendering:auto"
     id="flowRoot1270-7"
     xml:space="preserve"
     transform="translate(-11.751451,55.267406)"><flowRegion
       id="flowRegion1272-8"><rect
         y="65.067253"
         x="33.900585"
         height="24.605263"
         width="43.195904"
         id="rect1274-5" /></flowRegion><flowPara
       id="flowPara1276-3">$10$</flowPara></flowRoot>  <flowRoot
     style="font-style:normal;font-variant:normal;font-weight:normal;font-stretch:normal;font-size:16px;line-height:1.25;font-family:sans-serif;-inkscape-font-specification:'sans-serif, Normal';font-variant-ligatures:normal;font-variant-caps:normal;font-variant-numeric:normal;font-feature-settings:normal;text-align:center;letter-spacing:0px;word-spacing:0px;writing-mode:lr-tb;text-anchor:middle;color-interpolation:auto;fill:#000000;fill-opacity:1;stroke:none;stroke-width:1;stroke-linecap:square;stroke-linejoin:miter;stroke-miterlimit:10;stroke-dasharray:none;stroke-dashoffset:0;stroke-opacity:1;color-rendering:auto;image-rendering:auto;shape-rendering:auto;text-rendering:auto"
     id="flowRoot1270-3"
     xml:space="preserve"
     transform="translate(-13.938584,106.11829)"><flowRegion
       id="flowRegion1272-83"><rect
         y="65.067253"
         x="33.900585"
         height="24.605263"
         width="43.195904"
         id="rect1274-7" /></flowRegion><flowPara
       id="flowPara1276-9">$5$</flowPara></flowRoot>  <ellipse
     ry="4.0941343"
     rx="4.6310816"
     cy="266.51562"
     cx="106.71111"
     id="path903-7-4-1-3"
     style="font-style:normal;font-weight:normal;font-size:12px;font-family:Dialog;opacity:0.95999995;color-interpolation:auto;fill:#800080;fill-opacity:1;stroke:#000000;stroke-width:0.97939098;stroke-linecap:square;stroke-linejoin:miter;stroke-miterlimit:10;stroke-dasharray:none;stroke-dashoffset:0;stroke-opacity:1;color-rendering:auto;image-rendering:auto;shape-rendering:auto;text-rendering:auto" />
  <ellipse
     ry="4.0941343"
     rx="4.6310816"
     cy="165.99069"
     cx="201.0499"
     id="path903-7-4-1-7"
     style="font-style:normal;font-weight:normal;font-size:12px;font-family:Dialog;opacity:0.95999995;color-interpolation:auto;fill:#008000;fill-opacity:1;stroke:#000000;stroke-width:0.97939098;stroke-linecap:square;stroke-linejoin:miter;stroke-miterlimit:10;stroke-dasharray:none;stroke-dashoffset:0;stroke-opacity:1;color-rendering:auto;image-rendering:auto;shape-rendering:auto;text-rendering:auto" />
</svg>
